<svg id="Layer_1" data-name="Layer 1" xmlns="http://www.w3.org/2000/svg" viewBox="0 0 897 1080"><defs><style>.cls-3{fill:#8d7243;}</style></defs><polygon class="cls-3" points="882.63 288.83 882.63 267.78 611.08 267.78 611.08 288.83 647.44 288.83 647.44 517.05 533 517.05 533 41.61 599.18 41.61 599.18 20.56 533 20.56 364 20.56 297.46 20.56 297.46 41.61 364 41.61 364 517.05 249.56 517.05 249.56 288.83 285.92 288.83 285.92 267.78 14.38 267.78 14.38 288.83 80.55 288.83 80.55 791.77 14.38 791.77 14.38 812.82 285.92 812.82 285.92 791.77 249.56 791.77 249.56 551.92 647.44 551.92 647.44 791.77 611.08 791.77 611.08 812.82 882.63 812.82 882.63 791.77 816.45 791.77 816.45 288.83 882.63 288.83"/><path class="cls-3" d="M722.53,861.2a177.2,177.2,0,0,1-177.2,177.19H533V586.65H364v451.74H285.32v21H743.57V861.2Z"/></svg>