<svg id="Layer_1" data-name="Layer 1" xmlns="http://www.w3.org/2000/svg" viewBox="0 0 718.58 720"><defs><style>.cls-1{fill:#fff;}</style></defs><path class="cls-1" d="M1284.5,540.5l35.29-22.6-37.84-18L1314.12,473l-39.8-13.12,28.56-30.67-41.13-8,24.49-34-41.82-2.81,20-36.81-41.84,2.46,15.26-39-41.19,7.68,10.25-40.64L1167,290.85l5.07-41.6-38,17.69-.18-41.91-35.48,22.31L1093,205.78l-32.4,26.58L1050,191.81l-28.82,30.43-15.59-38.9-24.78,33.8L960.5,180.5l-20.34,36.64-24.78-33.8-15.59,38.9L871,191.81l-10.59,40.55L828,205.78l-5.43,41.56L787.07,225l-.18,41.91-38-17.69,5.07,41.6-39.91-12.78,10.25,40.64L683.11,311l15.27,39-41.84-2.46,20,36.81-41.82,2.81,24.49,34-41.13,8,28.56,30.67L606.88,473l32.17,26.85-37.84,18,35.29,22.6-35.29,22.6,37.84,18L606.88,608l39.8,13.12-28.56,30.67,41.13,8-24.49,34,41.82,2.81-20,36.81,41.84-2.46-15.27,39,41.2-7.68-10.25,40.64L754,790.15l-5.07,41.6,38-17.69.18,41.91,35.48-22.31L828,875.22l32.41-26.58L871,889.19l28.82-30.43,15.59,38.9,24.78-33.8L960.5,900.5l20.34-36.64,24.78,33.8,15.59-38.9L1050,889.19l10.59-40.55,32.4,26.58,5.43-41.56L1133.93,856l.18-41.91,38,17.69-5.07-41.6,39.91,12.78-10.25-40.64,41.19,7.68-15.26-39,41.84,2.46-20-36.81,41.82-2.81-24.49-34,41.13-8-28.56-30.67,39.8-13.12L1282,581.11l37.84-18Zm-324,303.41c-168.44,0-305-136.55-305-305s136.55-305,305-305,305,136.55,305,305S1128.94,843.91,960.5,843.91Z" transform="translate(-601.21 -180.5)"/><path class="cls-1" d="M960,828.56a291.22,291.22,0,1,1,205.92-85.3A289.31,289.31,0,0,1,960,828.56Zm0-577.42A286.18,286.18,0,1,0,1162.41,335,284.36,284.36,0,0,0,960,251.14Z" transform="translate(-601.21 -180.5)"/><path class="cls-1" d="M960,330.89c-114,0-206.45,92.44-206.45,206.46S846,743.8,960,743.8s206.46-92.43,206.46-206.45S1074,330.89,960,330.89Zm52.21,48.24h41V554.42h-41Zm-74,0h40.94V554.42H938.21Zm-71.3,0h41V554.42h-41Zm-46.25,201H818.9c-.22,4.7-.22,9-.22,13v29.54c0,11.6.42,14.1,11.69,14.52L829,641.41H797.7l1-4.17c11-.63,11.07-3.34,11.07-14.83V593.18c0-1.67-.1-6-.31-13h-1.26c-11.38,0-15,1.57-16.18,10.65l-4.7,2V574.91h53.77v15.87l-4.7,2C835.91,582.43,832.57,580.13,820.66,580.13Zm81.43,61.28H877.46l1.25-4.17c4-.21,6-1.67,6-4.28a22.31,22.31,0,0,0-1.46-6.9l-2.4-7.2H857.72l-1.56,4.08a24.52,24.52,0,0,0-2,8.35c0,4.59,3.14,6,10.55,6l-1.25,4.17H838.41l1.36-4.17c3.86-.73,6-4.7,8.67-11.69l12-31.43c2.19-5.74,4.28-12,6.26-19a59.61,59.61,0,0,0,8.77-1.35c4,13.15,7.21,23.37,9.81,30.8l4.6,13.14c4.49,12.85,5.85,18.69,13.47,19.53Zm58.93,0H948.28c-7.31-15.35-12-25.47-15.34-29.85-1.78-2.3-4.6-3.34-8.78-3.45v17.44c0,8.77,2.3,10.85,12.22,11.69L935,641.41H907.25l1.25-4.17h.74c5.74,0,6-4.28,6-15.77V599.66c0-15.25-.1-19.84-8.77-20.57l1.25-4.18c13.89-.31,22.14-.52,24.64-.52,13.37,0,20.15,5.64,20.15,16.6,0,8.24-5.64,14.3-15.14,16.08,5.33,1.46,7.94,6.89,12,15,4.91,9.71,6.78,14.72,12.84,15.14Zm31.68,0H968l1.25-4.17h.73c5.74,0,6.06-4.28,6.06-15.77V600.8c0-16.39-.11-21.09-9-21.71l1.25-4.18H993l-1.26,4.18H991c-5.64,0-6,4.38-6,15.14v21.5c0,16.08.2,20.88,9,21.51Zm35.17,1.25c-18.46,0-29.67-12.1-29.67-32.15,0-21.82,14.19-36.74,34.35-36.74,18.16,0,29.38,12.21,29.38,32.15C1061.93,627.64,1047.83,642.66,1027.87,642.66Zm103.75-63.57c-5.85,0-6.37,4.17-6.37,15.14v35.49c0,3.66,0,7.52.21,11.38l-5.22,1.78c-14.2-20.68-26.93-37.9-38.42-52.31l.11,31.53c.1,12.63.52,15.14,13.88,15.14l-1.36,4.17h-26.83l1.26-4.17h.83c5.85,0,6.37-4.59,6.37-16.5v-20c0-16.39-.21-21.61-8.77-21.61h-.52l1.25-4.18h14.2c13.78,19.52,26.2,36.34,37.38,50.64l-.21-31.22c-.11-12.63-.63-15.14-13.89-15.24l1.36-4.18h26.82l-1.35,4.18Z" transform="translate(-601.21 -180.5)"/><path class="cls-1" d="M942.75,591c0-7-4.49-11.17-12.43-11.17-5.74,0-6.16,2.3-6.16,8.87v13.78c2.3.21,4,.21,4.92.21C938.15,602.68,942.75,598.82,942.75,591Z" transform="translate(-601.21 -180.5)"/><path class="cls-1" d="M1028.58,581.8c-15.2,0-21,7.21-21,25.79,0,17.75,8.33,26.93,24.22,26.93,15.29,0,21-7.41,21-26.3C1052.7,591.2,1044.26,581.8,1028.58,581.8Z" transform="translate(-601.21 -180.5)"/><polygon class="cls-1" points="258.39 432.73 277.92 432.73 268.42 404.64 258.39 432.73"/><path class="cls-1" d="M724.07,418.27l6.28-11c3.46-6.07,8.69-10.67,15.8-6.62,4.56,2.6,6.4,7.15,4.4,12.23l18.78-.43-3.88,6.8-17.58-.32L745.52,423l13.41,7.65-3.21,5.63Zm19.12-2.36c1.81-3.18,3.66-7-.45-9.38-3.76-2.15-6.19,1.09-7.85,4l-2.78,4.87,8.58,4.9Zm-.54-28.55,14.65-19.17,4.66,3.56-10.71,14,7.11,5.44,10.15-13.29,4.67,3.56L763,394.77l7.85,6L782.15,386l4.66,3.56L771.6,409.48Zm68.78-26.13a31.67,31.67,0,0,1-8.33,13.08c-8.06,7.8-19.12,7.9-27-.27-8.12-8.39-7.65-19.44.41-27.24,4-3.87,8.4-6.49,13.5-6.7l-.08,6.81a13.74,13.74,0,0,0-9.3,4.07c-5.4,5.22-5,12.83.06,18,5.41,5.59,13,6.26,18.4,1a17.47,17.47,0,0,0,4.81-7.3l-6-6.18-5.37,5.19-4.07-4.21,10-9.7Zm-15-30.6,5.13-3.95,22.21,28.88-5.14,3.95Zm32.83-13.17a7.64,7.64,0,0,0-6.93,1c-2.53,1.59-4.33,4.32-2.55,7.14,3.9,6.18,16.29-6.58,23.22,4.38,4.18,6.61,1,13.13-5,16.95-3.83,2.42-8.32,3.61-12.73,2.2l1.6-6.61a8.59,8.59,0,0,0,8.12-.63c2.53-1.59,4.52-4.8,2.73-7.63-4.26-6.74-16.43,6.37-23.38-4.64-4-6.35-.23-12.88,5.47-16.48a15,15,0,0,1,10.83-2.4Zm18.18-11.92-10.11,4.75L834.86,305l26.08-12.25,2.49,5.31-10.1,4.75,13,27.66-5.87,2.75ZM868.41,290l23-7.37,1.79,5.59-16.81,5.39,2.73,8.52L895,297l1.79,5.58-15.93,5.11,3,9.41,17.69-5.67,1.79,5.58-23.86,7.65Zm33.65-10,12.46-2.21c6.89-1.22,13.77-.14,15.2,7.92.92,5.16-1.4,9.49-6.59,11.2l12.34,14.17-7.71,1.36-11-13.73-4.66.83,2.69,15.2-6.38,1.13Zm14,13.19c3.6-.64,7.75-1.69,6.92-6.35-.75-4.26-4.79-4.06-8.08-3.48l-5.53,1,1.73,9.73Zm21.58-18.66,24.11-1,.24,5.86-17.63.73.37,8.94,16.71-.69.24,5.86-16.71.69.42,9.88L964,304l.25,5.86-25,1Zm35.47-.87,14.27,1.5c9.52,1,17.81,7.77,16.52,20.06s-12.4,17-21.1,16.09l-13.51-1.42Zm8.06,31.58c8.08.85,15-1.93,16-10.74s-4.44-12.88-12.31-13.71l-5.89-.62-2.58,24.56Zm51.3-21.84,13.47,4.5c5.22,1.74,9.79,5.93,7.69,12.22-1.3,3.91-4.61,5.68-8.53,5.56l0,.1a8.67,8.67,0,0,1,4.68,10.84c-2.51,7.51-9.83,7.67-16.37,5.49L1021,318Zm-3.63,31.34,5.66,1.89c3.18,1.06,7.75,2,9.26-2.55,1.21-3.61-.71-5.66-5.69-7.33l-5.9-2Zm5.08-15.23,5.62,1.88c4.1,1.36,6.73.29,7.6-2.3,1-3-.57-5.12-5.21-6.67l-5.07-1.69Zm49.32,30.25c-4,7.84-12.13,9.87-19.56,6.09s-10.56-11.56-6.57-19.4l10.46-20.54,5.78,2.94L1063,319.21c-1.64,3.2-2,8.31,3.51,11.14s9.43-.51,11.07-3.72L1088,306.27l5.77,3Zm19.45-14.62,5.43,3.55-19.94,30.48-5.43-3.54Zm14,9.37,5.1,4L1103,352.56l12.19,9.56-3.62,4.61-17.29-13.56Zm23.75,19.14,10,10.32c6.65,6.89,8.65,17.4-.24,26s-20.42,5.07-26.5-1.23l-9.44-9.77ZM1126.35,373c5.64,5.85,12.77,8.19,19.14,2s4.88-12.72-.63-18.42l-4.11-4.25L1123,369.54Zm43.15,2.37,14,19.63-4.77,3.41-10.27-14.36-7.28,5.21,9.73,13.6-4.77,3.42-9.73-13.61-8,5.75,10.8,15.11-4.77,3.41-14.58-20.38Zm19.78,29,5.92,11.19c3.27,6.19,4.35,13.07-2.88,16.89-4.64,2.46-9.47,1.58-12.68-2.84l-9.71,16.09-3.65-6.92L1176,424.1l-2.21-4.19-13.64,7.22-3-5.73ZM1181,421.77c1.71,3.23,4,6.86,8.16,4.65,3.82-2,2.4-5.81.84-8.77l-2.63-5-8.73,4.62ZM730,456.56a7.94,7.94,0,1,0-7.93-7.94A7.94,7.94,0,0,0,730,456.56Zm462.25,9.49a7.94,7.94,0,1,0-7.93-7.93A7.93,7.93,0,0,0,1192.2,466.05Zm-459.06,14.1,2.63-10.81,5.68,1.38-6.78,27.89L729,497.23l2.63-10.81L702,479.24l1.52-6.28Zm.41,28.57-.66,5.55L695,525.48l.88-7.33,8.64-2.37,1.87-15.62-7.86-4.24.86-7.18Zm-23.26,5.48,15.32-3.8-14-7.4Zm21.09,18.07.3,12.6c.16,7-1.94,13.58-10.09,13.77-5.22.12-9.14-2.82-10-8.18l-15.81,10-.18-7.79,15.17-8.76-.11-4.71-15.37.35-.15-6.45Zm-15.1,11.83c.08,3.64.49,7.88,5.2,7.77,4.31-.1,4.73-4.11,4.65-7.44l-.13-5.58-9.84.23Zm16.58,19.17.76,6.41-36,4.32-.77-6.42ZM739,592.92c2.87,11-2.61,20.51-13.91,23.26-11,2.68-20.27-3.3-23.14-14.26-2.64-10.85,2.84-20.41,13.85-23.09C727.05,576.09,736.31,582.06,739,592.92Zm-31.36,7.67c1.78,7.32,8.53,10.8,16,9,7-1.71,11.42-7.89,9.64-15.21s-8.52-10.75-15.54-9C710.22,587.14,705.82,593.32,707.59,600.59Zm36.62,15.23,3.44,7.84L730,650.58l-.06.14,0-.09.14,0,24.68-10.83,2.59,5.91-33.22,14.58-3.29-7.51,18.27-27.61,0-.09-25.48,11.18L711,630.4Zm20.73,44.73,4.37,5.56L753,687.63l.07.08L778.63,678l3.93,5L767,705.39l.06.08,25-10.56,4,5.16L761,714.2l-3.8-4.83,16.51-23.68-.06-.08-26.91,10.47-3.67-4.67ZM806,707.84l4.16,3.73L797.66,749l-5.5-4.92,3-8.45-11.73-10.48-8,4-5.39-4.82Zm-8.84,22.21,5.66-14.73-14.07,7.21Zm26.89-6.92,10.51,7c5.8,3.85,10,9.36,5.52,16.15-2.89,4.35-7.54,5.88-12.44,3.55l-.84,18.69-6.49-4.3,1.49-17.46-3.93-2.61-8.5,12.81L804,753.36Zm1.07,19.16c3,2,6.74,4.1,9.35.17,2.38-3.58-.67-6.22-3.44-8.06l-4.66-3.09-5.44,8.2ZM850,739.78l11.35,5.5c6.27,3,11.19,7.92,7.64,15.26-2.28,4.7-6.68,6.84-11.85,5.19l1.67,18.63-7-3.39-.86-17.5-4.24-2.06L840,775.25l-5.82-2.82Zm3.63,18.84c3.28,1.59,7.24,3.17,9.29-1.08,1.88-3.87-1.49-6.08-4.49-7.53l-5-2.43-4.29,8.85Zm35.32-2.2,5.32,1.69,4,39.3-7-2.22-.73-8.94-15-4.73-5.63,6.93-6.89-2.18ZM890,780.3l-.88-15.76-9.87,12.36Zm21.43-17.16,8.47,1.22,13.57,29.18.08.12h-.1l.12-.09,3.83-26.68,6.39.92-5.16,35.91-8.11-1.17-13.8-30.09-.1,0-4,27.55-6.39-.92Zm46.28,10.52-11.12,0v-5.84l28.7-.05v5.84l-11.12,0,.05,30.44h-6.46Zm32,13.24-16.19-18.83,8-1,10.7,13.18,7.08-15.49,7.63-1-10.86,22.34,2,15.4-6.4.83Zm59.37-27.36c-3.44-1.79-6-1.71-8.39-.88-7.07,2.45-9.88,9.5-7.52,16.33,2.54,7.31,9.12,11.1,16.19,8.65,2.76-1,5-3.14,6.25-6.83l6.28,1.83c-1.62,5.34-5.63,8.79-10.67,10.54-10.55,3.66-20.59-.89-24.3-11.59-3.81-11,1.25-20.78,11.81-24.44a15.8,15.8,0,0,1,13.89,1.26Zm19.81-20c9.85-5.58,20.5-2.72,26,7.51,5.4,10,2,20.43-7.87,26-9.83,5.32-20.47,2.46-25.87-7.49C1055.66,755.33,1059.07,744.85,1068.9,739.53Zm15.43,28.36c6.62-3.59,8.25-11,4.57-17.81-3.45-6.35-10.55-9-17.18-5.44s-8.21,11-4.77,17.33C1070.64,768.78,1077.75,771.45,1084.33,767.89Zm5.39-39.62,10-7.66c5.54-4.23,12.12-6.42,17.07.06,3.17,4.15,3.1,9-.7,12.92l17.39,6.89-6.19,4.73-16-7.11-3.75,2.86,9.33,12.22-5.13,3.92Zm18.45,5.24c2.89-2.21,6.09-5,3.22-8.78-2.61-3.42-6.1-1.4-8.74.62l-4.44,3.4,6,7.81Zm5.75-24.33,8.64-8.61c5-5,11.2-7.7,16.89-2,6.44,6.46,2.77,12.44-2.67,17.86l-3.27,3.26,10.6,10.63-4.57,4.56Zm18.44,3.83c2.61-2.6,5.84-6.11,2.37-9.6-3.15-3.15-6.6-.59-9.06,1.88l-3.27,3.25,7.2,7.22Zm12-39.24c6.54-9.25,17.38-11.21,26.76-4.32,9.12,6.7,10.51,17.64,4,26.89-6.62,9-17.46,10.95-26.59,4.25C1139.1,693.7,1137.72,682.77,1144.34,673.77Zm26.05,19.07c4.46-6.07,2.77-13.48-3.46-18.06-5.83-4.28-13.4-3.67-17.85,2.4s-2.75,13.44,3.07,17.72C1158.39,699.48,1166,698.87,1170.39,692.84Zm-12-38.14,5.8-11.19c3.2-6.19,8.22-11,15.46-7.23,4.64,2.4,6.66,6.85,4.87,12l18.67-1.18-3.58,6.92-17.51.39-2.17,4.19,13.65,7.07-3,5.73Zm18.93-3.12c1.68-3.23,3.36-7.15-.83-9.32-3.82-2-6.11,1.34-7.65,4.29l-2.56,5L1175,656Zm-1.25-35.37,1.82-5.28,39.4-2.93-2.41,7-8.95.49-5.14,14.87,6.78,5.81-2.36,6.83Zm23.89-.42-15.78.46,12.1,10.19Zm-10.67-23.91-2.35,10.87-5.71-1.23,6.06-28,5.71,1.23-2.35,10.87,29.76,6.43-1.37,6.31Zm-2-21.7.78-6.4,36,4.39-.79,6.41Zm1.16-30.26c-.16-11.33,7.46-19.3,19.09-19.25,11.33,0,18.88,8.07,19,19.4,0,11.17-7.66,19.13-19,19.09C1196,559.11,1188.43,551.09,1188.47,539.92Zm32.29.07c0-7.53-5.69-12.53-13.43-12.56-7.22,0-13,4.92-13,12.46s5.69,12.47,12.91,12.5C1215,552.42,1220.73,547.47,1220.76,540Zm-31.87-23.6-1.43-8.44,23.63-21.84.09-.12v.1l-.11-.09-26.58,4.52-1.08-6.37,35.77-6.07,1.37,8.08-24.43,22.34,0,.1,27.43-4.66,1.08,6.37Z" transform="translate(-601.21 -180.5)"/></svg>